<svg xmlns="http://www.w3.org/2000/svg" width="18.168" height="15.751" viewBox="0 0 18.168 15.751"><g transform="translate(-0.25 -1.125)"><path d="M15.48,3.937,14.4,14.349a1.207,1.207,0,0,1-1.2,1.068H4.469a1.207,1.207,0,0,1-1.2-1.068L2.187,3.937" transform="translate(0.5 0.834)" fill="none" stroke="#000" stroke-linecap="round" stroke-linejoin="round" stroke-width="1.25"/><path d="M1.479,1.75H17.188a.6.6,0,0,1,.6.6V4.167a.6.6,0,0,1-.6.6H1.479a.6.6,0,0,1-.6-.6V2.354A.6.6,0,0,1,1.479,1.75Zm0,0" transform="translate(0 0)" fill="none" stroke="#000" stroke-linecap="round" stroke-linejoin="round" stroke-width="1.25"/><path d="M9.7,6.562,5.468,10.791" transform="translate(1.751 1.834)" fill="none" stroke="#000" stroke-linecap="round" stroke-linejoin="round" stroke-width="1.25"/><path d="M9.7,10.791,5.468,6.562" transform="translate(1.751 1.834)" fill="none" stroke="#000" stroke-linecap="round" stroke-linejoin="round" stroke-width="1.25"/></g></svg>