<svg xmlns="http://www.w3.org/2000/svg" width="19.327" height="19.766" viewBox="0 0 19.327 19.766">
  <g id="surface1" transform="translate(-1.337 -1.117)">
    <path id="Path_17" data-name="Path 17" d="M11.27,8.262a2.75,2.75,0,1,0,2.469,2.469A2.748,2.748,0,0,0,11.27,8.262ZM17.891,11a6.225,6.225,0,0,1-.066.895l1.945,1.523a.468.468,0,0,1,.105.59l-1.84,3.18a.457.457,0,0,1-.563.2l-1.93-.773a.693.693,0,0,0-.652.074,7.06,7.06,0,0,1-.926.539.673.673,0,0,0-.379.52L13.3,19.8a.473.473,0,0,1-.461.395H9.164a.476.476,0,0,1-.461-.383l-.289-2.055a.689.689,0,0,0-.387-.523,7.015,7.015,0,0,1-.922-.539.687.687,0,0,0-.648-.074l-1.93.777a.47.47,0,0,1-.566-.2L2.125,14.02a.463.463,0,0,1,.105-.59l1.641-1.289a.682.682,0,0,0,.258-.605c-.016-.18-.023-.355-.023-.535s.008-.355.023-.531a.692.692,0,0,0-.262-.6L2.227,8.578a.461.461,0,0,1-.1-.586l1.84-3.18a.457.457,0,0,1,.563-.2l1.93.773a.693.693,0,0,0,.652-.074,7.06,7.06,0,0,1,.926-.539.673.673,0,0,0,.379-.52L8.7,2.2A.473.473,0,0,1,9.164,1.8h3.672a.476.476,0,0,1,.461.383l.289,2.055a.689.689,0,0,0,.387.523,7.015,7.015,0,0,1,.922.539.687.687,0,0,0,.648.074l1.93-.777a.47.47,0,0,1,.566.2l1.836,3.18a.463.463,0,0,1-.105.59L18.129,9.86a.7.7,0,0,0-.262.605C17.883,10.641,17.891,10.821,17.891,11Zm0,0" fill="none" stroke="#000" stroke-linecap="round" stroke-linejoin="round" stroke-width="1.375"/>
  </g>
</svg>
